<svg width="900" height="620" viewBox="0 0 900 620" fill="none" xmlns="http://www.w3.org/2000/svg">
  <rect width="900" height="620" fill="#EEE7DE"/>
  <circle cx="702" cy="154" r="118" fill="#D9C7AE" fill-opacity="0.36"/>
  <rect x="72" y="52" width="756" height="516" rx="44" fill="url(#panel)"/>
  <path d="M447 114C535 114 606 185 606 273V353C606 441 535 512 447 512C359 512 288 441 288 353V273C288 185 359 114 447 114Z" fill="url(#figure)"/>
  <path d="M349 223C349 172 391 130 442 130H452C503 130 545 172 545 223V408C545 459 503 501 452 501H442C391 501 349 459 349 408V223Z" fill="#D4C2AD"/>
  <defs>
    <linearGradient id="panel" x1="450" y1="52" x2="450" y2="568" gradientUnits="userSpaceOnUse">
      <stop stop-color="#FBF8F4"/>
      <stop offset="1" stop-color="#D9C9B2"/>
    </linearGradient>
    <linearGradient id="figure" x1="447" y1="114" x2="447" y2="512" gradientUnits="userSpaceOnUse">
      <stop stop-color="#F3ECE5"/>
      <stop offset="1" stop-color="#9A846B"/>
    </linearGradient>
  </defs>
</svg>
