<svg width="1200" height="1500" viewBox="0 0 1200 1500" fill="none" xmlns="http://www.w3.org/2000/svg">
  <rect width="1200" height="1500" fill="#F3EFE8"/>
  <rect width="1200" height="1500" fill="url(#noise)"/>
  <rect x="178" y="170" width="844" height="1160" rx="422" fill="url(#shadow)"/>
  <rect x="265" y="248" width="670" height="1004" rx="335" fill="url(#figure)"/>
  <path d="M403 466C403 371 480 294 575 294H625C720 294 797 371 797 466V522H403V466Z" fill="#191919"/>
  <path d="M357 562C357 474 428 403 516 403H684C772 403 843 474 843 562V1082C843 1170 772 1241 684 1241H516C428 1241 357 1170 357 1082V562Z" fill="url(#coat)"/>
  <path d="M595 542L492 1193H708L605 542H595Z" fill="#0D0D0D" fill-opacity="0.72"/>
  <path d="M482 595H718" stroke="#C7AE8A" stroke-opacity="0.42" stroke-width="3"/>
  <path d="M451 724H749" stroke="#FFFFFF" stroke-opacity="0.08" stroke-width="2"/>
  <path d="M451 884H749" stroke="#FFFFFF" stroke-opacity="0.08" stroke-width="2"/>
  <defs>
    <linearGradient id="shadow" x1="600" y1="170" x2="600" y2="1330" gradientUnits="userSpaceOnUse">
      <stop stop-color="#DCCEB7"/>
      <stop offset="1" stop-color="#B89E79"/>
    </linearGradient>
    <linearGradient id="figure" x1="600" y1="248" x2="600" y2="1252" gradientUnits="userSpaceOnUse">
      <stop stop-color="#312C26"/>
      <stop offset="1" stop-color="#171717"/>
    </linearGradient>
    <linearGradient id="coat" x1="600" y1="403" x2="600" y2="1241" gradientUnits="userSpaceOnUse">
      <stop stop-color="#252525"/>
      <stop offset="1" stop-color="#080808"/>
    </linearGradient>
    <filter id="grain">
      <feTurbulence type="fractalNoise" baseFrequency="0.9" numOctaves="2" stitchTiles="stitch"/>
      <feComponentTransfer>
        <feFuncA type="table" tableValues="0 0.035"/>
      </feComponentTransfer>
    </filter>
    <pattern id="noise" width="200" height="200" patternUnits="userSpaceOnUse">
      <rect width="200" height="200" filter="url(#grain)"/>
    </pattern>
  </defs>
</svg>
