<svg width="900" height="900" viewBox="0 0 900 900" fill="none" xmlns="http://www.w3.org/2000/svg">
  <rect width="900" height="900" fill="#101010"/>
  <rect x="70" y="72" width="760" height="756" rx="72" fill="url(#panel)"/>
  <path d="M451 204C557 204 642 289 642 395V558C642 664 557 749 451 749C345 749 260 664 260 558V395C260 289 345 204 451 204Z" fill="url(#figure)"/>
  <path d="M334 376C334 312 386 260 450 260H452C516 260 568 312 568 376V595C568 659 516 711 452 711H450C386 711 334 659 334 595V376Z" fill="#191919"/>
  <path d="M301 638C382 585 473 558 575 557" stroke="#FFFFFF" stroke-opacity="0.1" stroke-width="3"/>
  <defs>
    <linearGradient id="panel" x1="450" y1="72" x2="450" y2="828" gradientUnits="userSpaceOnUse">
      <stop stop-color="#242424"/>
      <stop offset="1" stop-color="#080808"/>
    </linearGradient>
    <linearGradient id="figure" x1="451" y1="204" x2="451" y2="749" gradientUnits="userSpaceOnUse">
      <stop stop-color="#3A3228"/>
      <stop offset="1" stop-color="#0C0C0C"/>
    </linearGradient>
  </defs>
</svg>
