<svg width="1200" height="1500" viewBox="0 0 1200 1500" fill="none" xmlns="http://www.w3.org/2000/svg">
  <rect width="1200" height="1500" fill="#ECE6DE"/>
  <path d="M0 1034C198 980 377 953 537 953C756 953 977 1005 1200 1109V1500H0V1034Z" fill="#D7C7B2"/>
  <rect x="199" y="154" width="802" height="1188" rx="401" fill="url(#panel)"/>
  <path d="M600 294C694 294 770 370 770 464V548H430V464C430 370 506 294 600 294Z" fill="#DFD4C6"/>
  <path d="M348 577C348 489 419 418 507 418H693C781 418 852 489 852 577V932C852 1052 755 1149 635 1149H565C445 1149 348 1052 348 932V577Z" fill="url(#coat)"/>
  <path d="M399 646C445 630 493 622 542 622H658C706 622 754 630 800 646" stroke="#FFFFFF" stroke-opacity="0.34" stroke-width="4"/>
  <path d="M436 834H764" stroke="#5E5143" stroke-opacity="0.18" stroke-width="3"/>
  <defs>
    <linearGradient id="panel" x1="600" y1="154" x2="600" y2="1342" gradientUnits="userSpaceOnUse">
      <stop stop-color="#FBF8F4"/>
      <stop offset="1" stop-color="#D2C0A8"/>
    </linearGradient>
    <linearGradient id="coat" x1="600" y1="418" x2="600" y2="1149" gradientUnits="userSpaceOnUse">
      <stop stop-color="#D9CDBD"/>
      <stop offset="1" stop-color="#8A7761"/>
    </linearGradient>
  </defs>
</svg>
