<svg width="1200" height="1500" viewBox="0 0 1200 1500" fill="none" xmlns="http://www.w3.org/2000/svg">
  <rect width="1200" height="1500" fill="#F7F3EE"/>
  <circle cx="932" cy="257" r="202" fill="#E7D7BF"/>
  <rect x="188" y="156" width="824" height="1188" rx="412" fill="url(#panel)"/>
  <path d="M601 276C678 276 741 339 741 416V516H461V416C461 339 524 276 601 276Z" fill="#EEE6DD"/>
  <path d="M397 546C397 479 451 425 518 425H684C751 425 805 479 805 546V893C805 1019 767 1142 695 1246L625 1347H577L507 1246C435 1142 397 1019 397 893V546Z" fill="url(#dress)"/>
  <path d="M476 642C543 665 608 673 671 667" stroke="#FFFFFF" stroke-opacity="0.44" stroke-width="4"/>
  <path d="M448 1031C503 1063 566 1080 632 1080C686 1080 736 1068 783 1045" stroke="#8B7355" stroke-opacity="0.26" stroke-width="4"/>
  <defs>
    <linearGradient id="panel" x1="600" y1="156" x2="600" y2="1344" gradientUnits="userSpaceOnUse">
      <stop stop-color="#FFFFFF"/>
      <stop offset="1" stop-color="#DDCCB5"/>
    </linearGradient>
    <linearGradient id="dress" x1="601" y1="425" x2="601" y2="1347" gradientUnits="userSpaceOnUse">
      <stop stop-color="#F7F2EA"/>
      <stop offset="1" stop-color="#BFA98A"/>
    </linearGradient>
  </defs>
</svg>
